<svg version="1.1" xmlns="http://www.w3.org/2000/svg" xmlns:xlink="http://www.w3.org/1999/xlink" width="512.000000pt" height="512.000000pt" viewBox="0,0,256,256"><g fill="#ffc663" fill-rule="nonzero" stroke="none" stroke-width="1" stroke-linecap="butt" stroke-linejoin="miter" stroke-miterlimit="10" stroke-dasharray="" stroke-dashoffset="0" font-family="none" font-weight="none" font-size="none" text-anchor="none" style="mix-blend-mode: normal"><g transform="translate(0.01647,-0.0158) scale(0.5,0.5)"><g transform="translate(0,512) scale(0.1,-0.1)"><path d="M1680,5097c-35,-18 -48,-61 -29,-95c12,-22 30,-30 104,-49c211,-54 403,-194 516,-376c26,-43 27,-48 12,-54c-140,-50 -214,-95 -286,-173c-69,-74 -97,-143 -97,-240c0,-99 28,-166 101,-244l59,-64v-100v-101l-150,-126c-82,-69 -153,-125 -157,-125c-4,0 -201,290 -438,645c-275,412 -438,648 -454,655c-13,6 -32,8 -43,4c-11,-3 -146,-114 -299,-245c-293,-251 -297,-256 -268,-310c14,-27 53,-41 81,-30c13,5 117,90 233,190c116,99 213,181 216,181c3,0 34,-170 68,-377c34,-208 67,-389 72,-403c7,-20 102,-81 387,-252c207,-124 389,-232 403,-238c36,-16 56,-4 214,128l130,110l5,-392l5,-391l-33,-99c-17,-55 -44,-155 -59,-222c-18,-82 -30,-120 -37,-115c-6,4 -110,84 -231,178c-121,94 -231,176 -243,182c-55,29 -58,24 -411,-564l-332,-555h-144c-132,0 -147,-2 -165,-20c-26,-26 -26,-74 0,-100c18,-18 33,-20 194,-20c96,0 182,3 190,6c9,3 161,247 337,541c176,294 325,533 330,531c6,-2 111,-82 236,-178l225,-174l-7,-45c-4,-26 -9,-199 -11,-386l-3,-340l-325,-60c-228,-42 -331,-65 -342,-77c-11,-11 -38,-137 -89,-418c-41,-221 -75,-403 -77,-405c-2,-1 -67,-35 -144,-74c-113,-57 -144,-77 -153,-99c-16,-38 1,-76 41,-93c28,-11 40,-7 202,74c122,60 175,92 183,109c5,13 41,194 78,403c38,209 71,383 74,387c5,6 540,108 566,108c6,0 18,-51 28,-112c57,-368 190,-693 350,-850c168,-165 366,-165 535,2c160,157 292,478 349,848c10,61 22,112 28,112c29,0 560,-101 565,-107c4,-5 37,-179 75,-388c37,-209 73,-390 78,-403c8,-17 61,-49 183,-109c163,-81 174,-86 202,-74c40,17 57,58 41,95c-9,20 -47,44 -153,97c-78,40 -142,73 -144,74c-2,2 -36,184 -77,405c-57,314 -77,406 -91,420c-14,14 -101,33 -342,77l-323,58l-3,340c-2,187 -7,360 -11,385l-7,45l226,175c124,96 231,175 238,175c6,0 155,-238 329,-529c175,-291 324,-533 331,-537c7,-5 93,-9 191,-9c164,0 178,1 197,20c11,11 20,33 20,50c0,17 -9,39 -20,50c-18,18 -33,20 -164,20h-144l-332,554c-354,590 -356,594 -412,565c-12,-6 -122,-88 -243,-182c-121,-94 -225,-174 -231,-178c-7,-5 -19,33 -37,115c-15,67 -42,167 -59,222l-33,99l5,391l5,392l130,-110c157,-132 178,-144 214,-128c14,6 196,113 403,237c290,174 379,232 387,252c5,14 38,196 72,404c34,207 65,377 68,377c3,0 101,-82 216,-181c116,-100 220,-185 232,-190c45,-17 93,18 93,67c0,32 -17,49 -279,273c-153,131 -288,242 -299,245c-11,4 -30,2 -43,-4c-15,-7 -182,-248 -453,-656c-236,-354 -433,-644 -438,-644c-5,0 -76,56 -158,125l-150,126v101v100l59,64c79,84 104,149 99,259c-4,96 -30,156 -98,229c-60,65 -119,104 -213,142c-43,17 -78,35 -79,39c-2,17 87,139 144,195c113,112 235,181 395,223c72,18 90,27 102,49c20,35 5,78 -32,96c-24,11 -39,10 -106,-7c-162,-40 -316,-123 -435,-232c-63,-57 -158,-180 -196,-252l-25,-47h-115l-115,1l-42,72c-116,203 -313,362 -536,435c-120,39 -156,45 -187,29zM2755,4395c81,-21 180,-69 231,-110c49,-41 94,-124 94,-175c0,-84 -74,-177 -185,-233c-108,-54 -190,-72 -330,-72c-78,0 -152,6 -185,14c-78,19 -196,75 -246,116c-49,41 -94,124 -94,175c0,20 12,60 26,88c49,99 174,173 349,208c86,17 255,11 340,-11zM1232,3863c142,-213 256,-388 254,-390c-3,-3 -416,243 -429,256c-10,10 -96,521 -88,521c3,0 122,-175 263,-387zM4114,3993c-24,-145 -49,-262 -56,-268c-17,-16 -420,-257 -423,-253c-4,4 509,777 516,778c3,0 -14,-116 -37,-257zM2310,3687c56,-18 91,-21 250,-21c184,0 236,8 333,49c17,7 18,-18 15,-541l-3,-549l-27,-57c-34,-73 -104,-142 -176,-176c-48,-22 -71,-27 -142,-27c-71,0 -94,5 -142,27c-72,34 -142,103 -176,176l-27,57l-3,549c-3,523 -2,548 15,541c10,-4 47,-17 83,-28zM2330,2275c77,-39 143,-55 230,-55c137,0 245,45 347,142l62,60l15,-53c97,-340 123,-895 61,-1302c-59,-390 -180,-698 -329,-835c-56,-51 -100,-72 -156,-72c-56,0 -100,21 -156,72c-181,167 -311,556 -355,1063c-13,146 -7,516 11,665c15,121 55,339 75,408l16,54l62,-60c35,-33 87,-72 117,-87z"></path><path d="M2321,4154c-12,-15 -21,-34 -21,-44c0,-10 9,-29 21,-44c40,-50 119,-24 119,40c0,69 -78,101 -119,48z"></path><path d="M2702,4164c-16,-11 -22,-25 -22,-54c0,-44 26,-70 71,-70c30,0 69,40 69,70c0,10 -9,29 -21,44c-24,30 -63,34 -97,10z"></path></g></g></g></svg>