<svg version="1.1" xmlns="http://www.w3.org/2000/svg" xmlns:xlink="http://www.w3.org/1999/xlink" width="512.000000pt" height="512.000000pt" viewBox="0,0,256,256"><g fill="#fcc663" fill-rule="nonzero" stroke="none" stroke-width="1" stroke-linecap="butt" stroke-linejoin="miter" stroke-miterlimit="10" stroke-dasharray="" stroke-dashoffset="0" font-family="none" font-weight="none" font-size="none" text-anchor="none" style="mix-blend-mode: normal"><g transform="translate(-0.15732,-0.00136) scale(0.5,0.5)"><g transform="translate(0,512) scale(0.1,-0.1)"><path d="M3820,5105c-30,-7 -748,-214 -1595,-459c-1086,-315 -1561,-457 -1612,-482c-192,-93 -318,-319 -300,-533c3,-39 42,-190 94,-366l88,-300l5,-1260c6,-1379 1,-1281 68,-1410c75,-143 233,-258 389,-284c47,-8 262,-11 705,-9l638,3l26,27c37,37 37,99 0,136l-26,27l-663,5c-705,6 -686,4 -767,55c-75,48 -128,118 -154,205c-14,47 -16,144 -16,757v703l1958,-2l1957,-3l3,-665c1,-373 -2,-695 -7,-733c-18,-127 -86,-224 -199,-279l-67,-33l-660,-5c-363,-3 -668,-9 -677,-13c-27,-14 -48,-53 -48,-90c0,-39 34,-83 72,-92c12,-3 320,-4 683,-3c656,3 660,3 719,26c83,31 142,68 205,126c69,65 114,135 148,233l28,78v1263v1264l-33,29l-32,29h-1717c-944,0 -1714,2 -1712,5c3,2 743,218 1645,479c1788,518 1684,484 1684,559c0,53 -176,645 -215,724c-107,217 -381,345 -615,288zM4087,4886c67,-30 140,-98 172,-161c17,-34 153,-482 163,-539c3,-17 -20,-26 -195,-78l-199,-57l-136,132c-75,74 -237,230 -360,347c-122,118 -219,217 -215,220c7,6 438,132 548,161c57,15 157,4 222,-25zM3441,4340c194,-186 355,-343 357,-348c1,-4 -116,-42 -260,-84l-263,-75l-130,127c-71,69 -232,225 -357,345c-126,120 -228,221 -228,224c0,7 485,149 511,150c9,1 175,-152 370,-339zM2748,4065c166,-159 298,-292 294,-296c-8,-8 -494,-149 -512,-149c-6,0 -173,156 -371,347l-360,347l263,76l263,76l61,-55c33,-31 196,-186 362,-346zM1940,3900c228,-218 355,-347 347,-351c-6,-4 -125,-39 -264,-79l-252,-73l-361,349c-219,210 -357,350 -349,353c56,19 506,149 511,147c4,0 170,-156 368,-346zM1189,3680c198,-189 359,-345 358,-347c-11,-10 -872,-251 -878,-246c-4,5 -40,121 -80,258c-64,218 -73,260 -73,330c0,65 5,90 25,135c28,61 74,118 122,152c36,26 137,69 154,65c7,-1 174,-157 372,-347zM1570,2843c0,-3 -93,-167 -207,-365l-207,-358h-228h-228v365v365h435c239,0 435,-3 435,-7zM2357,2843c-3,-5 -96,-165 -207,-358c-111,-192 -205,-353 -209,-358c-4,-4 -130,-6 -279,-5l-272,3l196,340c108,187 202,350 210,363c14,22 15,22 290,22c151,0 273,-3 271,-7zM3138,2841c-1,-4 -95,-169 -208,-364l-205,-356l-279,-1h-278l14,23c8,12 104,176 212,365l198,342h275c151,0 273,-4 271,-9zM3718,2485l-211,-365h-274c-172,0 -273,4 -271,10c2,5 95,169 208,364l205,356h277h276zM4620,2485v-365h-441c-242,0 -438,3 -436,8c23,41 393,683 403,700c14,22 17,22 244,22h230z"></path><path d="M2330,1662c-19,-9 -40,-28 -47,-42c-10,-19 -13,-152 -13,-557v-533l29,-32c55,-62 53,-63 564,232c342,198 462,272 473,292c21,41 17,74 -13,107c-29,32 -891,533 -934,544c-15,4 -39,0 -59,-11zM2823,1200c119,-69 216,-128 214,-132c-2,-7 -553,-328 -562,-328c-3,0 -5,149 -5,331v331l68,-39c38,-21 166,-94 285,-163z"></path><path d="M2615,189c-98,-57 -50,-205 59,-185c108,20 104,176 -5,192c-18,2 -43,-1 -54,-7z"></path></g></g></g></svg>