<svg version="1.1" xmlns="http://www.w3.org/2000/svg" xmlns:xlink="http://www.w3.org/1999/xlink" width="512.000000pt" height="512.000000pt" viewBox="0,0,256,256"><g fill="#ffc663" fill-rule="nonzero" stroke="none" stroke-width="1" stroke-linecap="butt" stroke-linejoin="miter" stroke-miterlimit="10" stroke-dasharray="" stroke-dashoffset="0" font-family="none" font-weight="none" font-size="none" text-anchor="none" style="mix-blend-mode: normal"><g transform="translate(0,-0.00305) scale(0.5,0.5)"><g transform="translate(0,512) scale(0.1,-0.1)"><path d="M960,4947c-49,-16 -133,-102 -148,-153c-9,-32 -12,-352 -12,-1353v-1312l25,-24c32,-33 78,-33 110,0l25,24v1016v1015h1600h1600v-1015v-1016l25,-24c32,-33 78,-33 110,0l25,24v1312c0,1001 -3,1321 -12,1353c-16,55 -99,138 -154,154c-56,16 -3141,16 -3194,-1zM4135,4775c25,-24 25,-24 25,-240v-215h-1600h-1600v215c0,216 0,216 25,240l24,25h1551h1551z"></path><path d="M1145,4615c-50,-49 -15,-135 55,-135c41,0 80,39 80,80c0,41 -39,80 -80,80c-19,0 -40,-9 -55,-25z"></path><path d="M1465,4615c-50,-49 -15,-135 55,-135c41,0 80,39 80,80c0,41 -39,80 -80,80c-19,0 -40,-9 -55,-25z"></path><path d="M1785,4615c-50,-49 -15,-135 55,-135c41,0 80,39 80,80c0,41 -39,80 -80,80c-19,0 -40,-9 -55,-25z"></path><path d="M2905,4615c-16,-15 -25,-36 -25,-55c0,-19 9,-40 25,-55l24,-25h509c485,0 511,1 533,19c33,27 33,95 0,122c-22,18 -48,19 -533,19h-509z"></path><path d="M320,4467c-49,-16 -133,-102 -148,-153c-17,-58 -18,-2968 0,-3025c16,-55 73,-118 132,-145l51,-24h2205h2205l51,24c59,27 116,90 132,145c18,57 17,2967 0,3025c-16,55 -99,138 -154,154c-23,7 -92,12 -153,12c-105,0 -113,-1 -136,-25c-33,-32 -33,-78 0,-110c23,-24 31,-25 135,-25c104,0 112,-1 135,-25l25,-24v-1176v-1175h-2240h-2240v1175v1176l25,24c23,24 31,25 135,25c104,0 112,1 135,25c33,32 33,78 0,110c-23,24 -29,25 -142,24c-65,-1 -134,-6 -153,-12zM4800,1545c0,-216 0,-216 -25,-240l-24,-25h-2191h-2191l-24,25c-25,24 -25,24 -25,240v215h2240h2240z"></path><path d="M2363,1588c-12,-6 -27,-23 -34,-39c-15,-37 4,-87 38,-100c33,-12 379,-12 403,1c25,13 41,65 30,94c-19,51 -40,56 -235,55c-104,0 -189,-5 -202,-11z"></path><path d="M2751,3823c-16,-13 -86,-214 -266,-753c-135,-404 -245,-745 -245,-758c0,-57 83,-92 129,-54c16,12 86,213 266,752c135,404 245,745 245,758c0,57 -83,92 -129,55z"></path><path d="M1633,3305c-144,-121 -262,-226 -267,-240c-6,-16 -6,-34 0,-50c5,-14 121,-118 267,-240c220,-182 264,-215 291,-215c44,0 76,35 76,82c0,35 -8,43 -212,213c-117,98 -213,181 -213,185c0,4 88,80 195,169c107,89 203,171 213,183c25,29 22,74 -8,103c-50,51 -62,44 -342,-190z"></path><path d="M3145,3495c-27,-26 -33,-71 -12,-97c6,-9 102,-91 212,-183c110,-91 200,-170 200,-175c0,-5 -90,-84 -200,-175c-110,-92 -206,-174 -212,-183c-21,-26 -15,-71 12,-97c49,-50 61,-44 345,191c166,138 263,226 266,240c4,13 4,35 0,47c-3,15 -101,103 -266,240c-284,236 -295,243 -345,192z"></path><path d="M2069,951c-14,-11 -43,-50 -65,-87c-21,-37 -72,-103 -113,-146l-73,-78h-85c-47,0 -103,-5 -124,-12c-55,-16 -118,-73 -145,-132c-21,-44 -24,-66 -24,-169c0,-112 1,-119 25,-142l24,-25h1071h1071l24,25c24,23 25,31 25,136c0,144 -11,181 -75,244c-60,61 -101,75 -214,75h-82l-51,48c-60,55 -127,141 -156,197c-27,54 -56,78 -94,78c-35,0 -78,-40 -78,-74c0,-29 43,-109 99,-183l50,-66h-519h-519l50,66c56,74 99,154 99,183c0,27 -39,69 -70,76c-18,4 -34,0 -51,-14zM3495,455c21,-20 25,-34 25,-80v-55h-960h-960v55c0,46 4,60 25,80l24,25h911h911z"></path></g></g></g></svg>