<svg version="1.1" xmlns="http://www.w3.org/2000/svg" xmlns:xlink="http://www.w3.org/1999/xlink" width="512.000000pt" height="512.000000pt" viewBox="0,0,256,256"><g fill="#ffc663" fill-rule="nonzero" stroke="none" stroke-width="1" stroke-linecap="butt" stroke-linejoin="miter" stroke-miterlimit="10" stroke-dasharray="" stroke-dashoffset="0" font-family="none" font-weight="none" font-size="none" text-anchor="none" style="mix-blend-mode: normal"><g transform="translate(0.01875,-0.01149) scale(0.5,0.5)"><g transform="translate(0,512) scale(0.1,-0.1)"><path d="M240,5027c-49,-16 -133,-102 -148,-153c-17,-60 -17,-2168 0,-2228c16,-55 99,-138 154,-154c30,-9 193,-12 614,-12h572l-7,-42c-11,-69 -67,-208 -109,-271c-22,-33 -61,-83 -89,-113l-49,-54h-189h-189v-80v-80h960h960v80v80h-189h-189l-49,54c-28,30 -67,80 -89,113c-42,63 -98,202 -109,271l-7,42h574c657,0 637,-2 711,80c24,26 49,66 55,88c17,57 17,2167 0,2224c-6,22 -31,62 -55,88c-78,87 57,80 -1617,79c-1049,-1 -1491,-4 -1516,-12zM3255,4855l25,-24v-1071v-1071l-25,-24l-24,-25h-1471h-1471l-24,25l-25,24v1071v1071l25,24l24,25h1471h1471zM1930,2457c0,-79 87,-303 158,-407l31,-45l-179,-3c-99,-1 -261,-1 -360,0l-179,3l31,45c71,104 158,328 158,407v23h170h170z"></path><path d="M425,4695l-25,-24v-911v-911l25,-24l24,-25h1311h1311l24,25l25,24v911v911l-25,24l-24,25h-1311h-1311zM2960,3760v-800h-1200h-1200v800v800h1200h1200z"></path><path d="M3760,5027c-49,-16 -133,-102 -148,-153c-9,-32 -12,-370 -12,-1433v-1392l25,-24l24,-25h336h335v-160v-160h-895h-896l-24,-25c-25,-24 -25,-24 -25,-240v-215h-935h-936l-22,-23c-20,-19 -32,-78 -105,-517c-45,-272 -82,-503 -82,-513c0,-10 11,-29 25,-42l24,-25h2111h2111l24,25c14,13 25,32 25,42c0,10 -37,241 -82,513c-73,439 -85,498 -105,517l-22,23h-936h-935v160v160h895h896l24,25c25,24 25,24 25,240v215h255h256l24,25l25,24v1392c0,1046 -3,1402 -12,1431c-6,22 -31,62 -55,88c-73,82 -60,80 -657,79c-349,-1 -533,-5 -556,-12zM4855,4855l25,-24v-1336v-1335h-560h-560v1335v1336l25,24l24,25h511h511zM4415,1018c9,-41 125,-747 125,-762c0,-14 -198,-16 -1980,-16c-1782,0 -1980,2 -1980,16c0,15 116,721 125,762l5,22h1850h1850z"></path><path d="M3920,4400v-80h400h400v80v80h-400h-400z"></path><path d="M3920,3840v-80h400h400v80v80h-400h-400z"></path><path d="M4220,3344c-142,-52 -229,-183 -218,-327c26,-318 443,-407 597,-127c33,60 36,71 36,150c0,78 -3,91 -34,148c-58,106 -144,161 -265,168c-50,3 -84,-1 -116,-12zM4383,3186c103,-43 128,-177 48,-257c-112,-113 -296,-12 -267,146c18,94 128,150 219,111z"></path><path d="M3920,2400v-80h80h80v80v80h-80h-80z"></path><path d="M4560,2400v-80h80h80v80v80h-80h-80z"></path><path d="M880,800v-80h80h80v80v80h-80h-80z"></path><path d="M1200,800v-80h80h80v80v80h-80h-80z"></path><path d="M1520,800v-80h80h80v80v80h-80h-80z"></path><path d="M1840,800v-80h80h80v80v80h-80h-80z"></path><path d="M2160,800v-80h80h80v80v80h-80h-80z"></path><path d="M2480,800v-80h80h80v80v80h-80h-80z"></path><path d="M2800,800v-80h80h80v80v80h-80h-80z"></path><path d="M3120,800v-80h80h80v80v80h-80h-80z"></path><path d="M3440,800v-80h80h80v80v80h-80h-80z"></path><path d="M3760,800v-80h80h80v80v80h-80h-80z"></path><path d="M4080,800v-80h80h80v80v80h-80h-80z"></path><path d="M880,480v-80h80h80v80v80h-80h-80z"></path><path d="M1200,480v-80h80h80v80v80h-80h-80z"></path><path d="M1520,480v-80h80h80v80v80h-80h-80z"></path><path d="M1840,480v-80h80h80v80v80h-80h-80z"></path><path d="M2160,480v-80h80h80v80v80h-80h-80z"></path><path d="M2480,480v-80h80h80v80v80h-80h-80z"></path><path d="M2800,480v-80h80h80v80v80h-80h-80z"></path><path d="M3120,480v-80h80h80v80v80h-80h-80z"></path><path d="M3440,480v-80h80h80v80v80h-80h-80z"></path><path d="M3760,480v-80h80h80v80v80h-80h-80z"></path><path d="M4080,480v-80h80h80v80v80h-80h-80z"></path></g></g></g></svg>